<svg _ngcontent-qpf-c12="" xmlns="http://www.w3.org/2000/svg" width="56" height="56" viewBox="0 0 84 84" fill="none" xmlns:v="https://vecta.io/nano"><circle _ngcontent-qpf-c12="" cx="42" cy="42" r="42" fill="#eff2ff"></circle><circle _ngcontent-qpf-c12="" cx="42" cy="42" r="29" fill="#0032ff"></circle><g _ngcontent-qpf-c12="" fill-rule="evenodd" fill="#fff"><path _ngcontent-qpf-c12="" d="M23.461 34.5c-.615-.615-.615-1.612 0-2.226l6.297-6.297c.615-.615 1.611-.615 2.226 0l6.297 6.297c.615.615.615 1.611 0 2.226s-1.611.615-2.226 0l-5.184-5.184-5.184 5.184c-.615.615-1.611.615-2.226 0z"></path><path _ngcontent-qpf-c12="" d="M32.445 49.129a4.72 4.72 0 0 0 1.383 3.339c.885.885 2.087 1.383 3.339 1.383h3.148c.869 0 1.574.705 1.574 1.574S41.186 57 40.316 57h-3.148a7.87 7.87 0 0 1-7.871-7.871V27.09c0-.869.705-1.574 1.574-1.574s1.574.705 1.574 1.574v22.039zM45.5 48.016c.615-.615 1.612-.615 2.226 0L52.91 53.2l5.184-5.184c.615-.615 1.611-.615 2.226 0s.615 1.611 0 2.226l-6.297 6.297c-.615.615-1.611.615-2.226 0L45.5 50.242c-.615-.615-.615-1.611 0-2.226z"></path><path _ngcontent-qpf-c12="" d="M41.89 27.09c0-.869.705-1.574 1.574-1.574h3.148a7.87 7.87 0 0 1 7.871 7.871v22.039c0 .869-.705 1.574-1.574 1.574s-1.574-.705-1.574-1.574V33.387c0-1.252-.498-2.454-1.383-3.339s-2.087-1.383-3.339-1.383h-3.148c-.869 0-1.574-.705-1.574-1.574z"></path></g></svg>