<svg _ngcontent-qpf-c19="" xmlns="http://www.w3.org/2000/svg" width="23" height="19" fill="none" xmlns:v="https://vecta.io/nano"><g _ngcontent-qpf-c19="" clip-path="url(#A)"><g _ngcontent-qpf-c19="" stroke="#3e4045" stroke-width="1.5" stroke-miterlimit="10"><path _ngcontent-qpf-c19="" d="M15.526 17.639l-1.057.194c-.292.043-.584-.29-.654-.747l-.165-1.041c-.729.148-1.471.223-2.215.226a11.23 11.23 0 0 1-3.095-.453l-.186 1.265c-.068.453-.357.794-.649.751l-2.009-.296c-.292-.043-.473-.453-.405-.905l.308-2.095.02-.113C3.716 13.204 2.65 11.469 2.65 9.544a5.24 5.24 0 0 1 .344-1.855l.084-.213c1.131-2.692 4.45-4.64 8.357-4.64.704 0 1.407.065 2.1.195.547-.663 1.606-1.751 2.918-2.136.033-.009.067-.008.099.001s.062.027.085.052.039.055.047.088a.19.19 0 0 1-.005.099 9.65 9.65 0 0 0-.534 2.749c1.855.905 3.238 2.323 3.796 3.995h.805a.68.68 0 0 1 .679.679v2.595a.68.68 0 0 1-.679.679h-1.054a7.26 7.26 0 0 1-.628 1.017" stroke-linecap="round" stroke-linejoin="round"></path><g _ngcontent-qpf-c19="" fill="#3e4045"><path _ngcontent-qpf-c19="" d="M1.537 6.225c-.258-1.559.934-1.943.964-1.991s-.014-.215-.072-.215c-.014 0-1.405.491-1.113 2.242.154.923.95 1.29 1.679 1.428l.084-.213c-.67-.118-1.405-.437-1.541-1.251z"></path></g></g><path _ngcontent-qpf-c19="" d="M16.478 9.14a1.01 1.01 0 0 0 1.008-1.008 1.01 1.01 0 0 0-1.008-1.008 1.01 1.01 0 0 0-1.008 1.008 1.01 1.01 0 0 0 1.008 1.008z" fill="#3e4045"></path><path _ngcontent-qpf-c19="" d="M17.279 17.008c.848 0 1.535-.687 1.535-1.535s-.687-1.535-1.535-1.535-1.535.687-1.535 1.535.687 1.535 1.535 1.535z" fill="#ff6e00"></path></g><defs _ngcontent-qpf-c19=""><clipPath _ngcontent-qpf-c19="" id="A"><path _ngcontent-qpf-c19="" fill="#fff" transform="translate(.5)" d="M0 0h22.212v18.728H0z"></path></clipPath></defs></svg>