<svg _ngcontent-pxl-c15="" width="18" height="14" viewBox="0 0 18 14" fill="none" xmlns="http://www.w3.org/2000/svg"><path _ngcontent-pxl-c15="" d="M7.30115 2.02318V3.03491H17.9591C17.9442 2.70864 17.9122 2.29617 17.7977 2.02318" fill="#EC1C24"></path><path _ngcontent-pxl-c15="" d="M17.2952 1.01266H7.30115V2.02439H17.7977C17.6837 1.64694 17.5141 1.30271 17.2952 1.01266Z" fill="#E6E7E8"></path><path _ngcontent-pxl-c15="" d="M15.1616 0.000793457H7.30115V1.01252H17.2952C16.8266 0.386927 16.0555 0.000793457 15.1616 0.000793457Z" fill="#EC1C24"></path><path _ngcontent-pxl-c15="" d="M17.9591 3.03593H7.30115V4.04766H17.9689V3.37328C17.9689 3.31311 17.9653 3.25444 17.9636 3.19548C17.9625 3.17931 17.9608 3.13771 17.9591 3.03593Z" fill="#E6E7E8"></path><path _ngcontent-pxl-c15="" d="M7.30115 5.05938H17.9689V4.04765H7.30115V5.05938Z" fill="#EC1C24"></path><path _ngcontent-pxl-c15="" d="M7.30115 6.07025H17.9689V5.05852H7.30115V6.07025Z" fill="#E6E7E8"></path><path _ngcontent-pxl-c15="" d="M7.30115 6.07011H17.9689V7.08184H7.30115V6.07011Z" fill="#EC1C24"></path><path _ngcontent-pxl-c15="" d="M0.000488281 7.0836V8.09533H17.9673V7.0836H7.29949H0.000488281Z" fill="#E6E7E8"></path><path _ngcontent-pxl-c15="" d="M0.000488281 8.0946H17.9673V9.10633H0.000488281V8.0946Z" fill="#EC1C24"></path><path _ngcontent-pxl-c15="" d="M0.00189194 9.72855C0.00189194 9.72855 -0.000634643 9.9737 0.0061029 10.118H17.9617C17.9695 9.97011 17.9659 9.72855 17.9659 9.72855L17.9673 9.10625H0.000488281L0.00189194 9.72855Z" fill="#E6E7E8"></path><path _ngcontent-pxl-c15="" d="M2.80701 13.1701H15.1592C16.0555 13.1701 16.8006 12.8229 17.3096 12.1404H0.653809C1.17934 12.8379 1.93843 13.1701 2.80561 13.1701" fill="#EC1C24"></path><path _ngcontent-pxl-c15="" d="M0.65522 12.1414H17.311C17.533 11.8406 17.6988 11.4972 17.7994 11.1297H0.169556C0.27205 11.4961 0.43718 11.8391 0.656624 12.1414" fill="#E6E7E8"></path><path _ngcontent-pxl-c15="" d="M0.167218 11.1297H17.7971C17.889 10.8006 17.9437 10.4609 17.9599 10.118H0.00439453C0.0321869 10.464 0.0580141 10.7253 0.167218 11.1297Z" fill="#EC1C24"></path><path _ngcontent-pxl-c15="" d="M7.29949 0.000778198H2.8078C0.947393 0.000778198 0.000488281 1.47497 0.000488281 3.29339V7.08288H7.29949V0.000778198Z" fill="#176496"></path><path _ngcontent-pxl-c15="" d="M0.787854 1.78969L0.940572 1.66457L1.09301 1.78969L1.03377 1.58854L1.18565 1.46552H0.998122L0.940011 1.26347L0.88218 1.46552H0.694932L0.847369 1.58854L0.787854 1.78969ZM1.7968 1.78969L1.94952 1.66457L2.10196 1.78969L2.043 1.58854L2.1946 1.46552H2.00735L1.94924 1.26347L1.89141 1.46552H1.7036L1.85604 1.58854L1.7968 1.78969ZM2.9099 1.78969L3.06234 1.66457L3.21505 1.78969L3.15582 1.58854L3.30741 1.46552H3.12129L3.06234 1.26347L3.00423 1.46552H2.8181L2.96885 1.58854L2.9099 1.78969ZM4.01486 1.78969L4.16729 1.66457L4.32001 1.78969L4.26106 1.58854L4.41265 1.46552H4.22456L4.16729 1.26347L4.10946 1.46552H3.92193L4.07409 1.58854L4.01486 1.78969ZM5.12374 1.78969L5.27646 1.66457L5.4289 1.78969L5.36995 1.58854L5.52182 1.46552H5.33401L5.27618 1.26347L5.21835 1.46552H5.0311L5.1827 1.58854L5.12374 1.78969ZM1.32489 2.31501L1.47733 2.19019L1.62977 2.31501L1.57109 2.11416L1.72269 1.99114H1.53516L1.47705 1.78939L1.42006 1.99114H1.23197L1.38385 2.11416L1.32489 2.31501ZM2.33412 2.31501L2.48656 2.19019L2.63899 2.31501L2.58004 2.11416L2.73164 1.99114H2.54298L2.48656 1.78939L2.42845 1.99114H2.2412L2.39307 2.11416L2.33412 2.31501ZM3.44722 2.31501L3.59937 2.19019L3.75181 2.31501L3.69286 2.11416L3.84473 1.99114H3.65749L3.59937 1.78939L3.54126 1.99114H3.35374L3.50561 2.11416L3.44722 2.31501ZM4.55161 2.31501L4.70433 2.19019L4.85705 2.31501L4.79725 2.11416L4.94941 1.99114H4.76216L4.70405 1.78939L4.6465 1.99114H4.45897L4.61085 2.11416L4.55161 2.31501ZM5.6619 2.31501L5.81322 2.19019L5.96566 2.31501L5.90614 2.11416L6.0583 1.99114H5.87133L5.81294 1.78939L5.75539 1.99114H5.56786L5.71974 2.11416L5.6619 2.31501ZM6.28709 1.78969L6.43953 1.66457L6.59225 1.78969L6.53301 1.58854L6.68461 1.46552H6.49848L6.43925 1.26347L6.38142 1.46552H6.19249L6.34605 1.58854L6.28709 1.78969ZM0.772976 5.99346L0.925693 5.86984L1.07813 5.99346L1.01918 5.79411L1.17077 5.67078L0.983524 5.67138L0.925132 5.46963L0.867863 5.67138L0.680054 5.67078L0.831929 5.79411L0.772976 5.99346ZM1.7822 5.99346L1.93464 5.86984L2.08736 5.99346L2.02812 5.79411L2.17972 5.67078L1.99275 5.67138L1.93436 5.46963L1.87681 5.67138L1.68956 5.67078L1.84116 5.79411L1.7822 5.99346ZM2.8953 5.99346L3.04774 5.86984L3.20046 5.99346L3.14122 5.79411L3.29282 5.67078L3.10445 5.67138L3.04746 5.46963L2.98963 5.67138L2.80238 5.67078L2.95425 5.79411L2.8953 5.99346ZM4.00026 5.99346L4.1527 5.86984L4.30513 5.99346L4.24702 5.79411L4.39777 5.67078L4.21025 5.67138L4.15241 5.46963L4.09458 5.67138L3.90734 5.67078L4.05893 5.79411L4.00026 5.99346ZM5.10887 5.99346L5.26158 5.86984L5.4143 5.99346L5.35591 5.79411L5.50666 5.67078L5.31941 5.67138L5.2613 5.46963L5.20375 5.67138L5.01622 5.67078L5.16782 5.79411L5.10887 5.99346ZM6.27221 5.99346L6.42465 5.86984L6.57737 5.99346L6.51813 5.79411L6.67001 5.67078L6.48164 5.67138L6.42437 5.46963L6.36654 5.67138L6.17845 5.67078L6.33117 5.79411L6.27221 5.99346ZM0.787854 2.84093L0.940572 2.71581L1.09301 2.84093L1.03377 2.63978L1.18565 2.51676L0.998122 2.51736L0.940011 2.31501L0.88218 2.51736L0.694932 2.51676L0.847369 2.63978L0.787854 2.84093ZM1.7968 2.84093L1.94952 2.71581L2.10196 2.84093L2.043 2.63978L2.1946 2.51676L2.00735 2.51736L1.94924 2.31501L1.89141 2.51736L1.7036 2.51676L1.85604 2.63978L1.7968 2.84093ZM2.9099 2.84093L3.06234 2.71581L3.21505 2.84093L3.15582 2.63978L3.30741 2.51676L3.12129 2.51736L3.06234 2.31501L3.00423 2.51736L2.8181 2.51676L2.96885 2.63978L2.9099 2.84093ZM4.01486 2.84093L4.16729 2.71581L4.32001 2.84093L4.26106 2.63978L4.41265 2.51676L4.22456 2.51736L4.16729 2.31501L4.10946 2.51736L3.92193 2.51676L4.07409 2.63978L4.01486 2.84093ZM5.12374 2.84093L5.27646 2.71581L5.4289 2.84093L5.36995 2.63978L5.52182 2.51676L5.33401 2.51736L5.27618 2.31501L5.21835 2.51736L5.0311 2.51676L5.1827 2.63978L5.12374 2.84093ZM1.32489 3.36655L1.47733 3.24173L1.62977 3.36655L1.57109 3.1657L1.72269 3.04208H1.53516L1.47705 2.84093L1.42006 3.04208H1.23197L1.38385 3.1657L1.32489 3.36655ZM2.33412 3.36655L2.48656 3.24173L2.63899 3.36655L2.58004 3.1657L2.73164 3.04208H2.54298L2.48656 2.84093L2.42845 3.04208H2.2412L2.39307 3.1657L2.33412 3.36655ZM3.44722 3.36655L3.59937 3.24173L3.75181 3.36655L3.69286 3.1657L3.84473 3.04208H3.65749L3.59937 2.84093L3.54126 3.04208H3.35374L3.50561 3.1657L3.44722 3.36655ZM4.55161 3.36655L4.70433 3.24173L4.85705 3.36655L4.79725 3.1657L4.94941 3.04208H4.76216L4.70405 2.84093L4.6465 3.04208H4.45897L4.61085 3.1657L4.55161 3.36655ZM5.6619 3.36655L5.81322 3.24173L5.96566 3.36655L5.90614 3.1657L6.0583 3.04208H5.87133L5.81294 2.84093L5.75539 3.04208H5.56786L5.71974 3.1657L5.6619 3.36655ZM6.28709 2.84093L6.43953 2.71581L6.59225 2.84093L6.53301 2.63978L6.68461 2.51676L6.49848 2.51736L6.43925 2.31501L6.38142 2.51736L6.19249 2.51676L6.34605 2.63978L6.28709 2.84093ZM0.772976 3.89217L0.925693 3.76735L1.07813 3.89217L1.0189 3.69162L1.17077 3.5683L0.983243 3.5689L0.925132 3.36655L0.867863 3.5689L0.680054 3.5683L0.831929 3.69162L0.772976 3.89217ZM1.7822 3.89217L1.93464 3.76735L2.08736 3.89217L2.02812 3.69162L2.17972 3.5683L1.99275 3.5689L1.93436 3.36655L1.87681 3.5689L1.68956 3.5683L1.84088 3.69162L1.7822 3.89217ZM2.8953 3.89217L3.04774 3.76735L3.20018 3.89217L3.14122 3.69162L3.29282 3.5683L3.10445 3.5689L3.04746 3.36655L2.98963 3.5689L2.80238 3.5683L2.95425 3.69162L2.8953 3.89217ZM4.00026 3.89217L4.15241 3.76735L4.30513 3.89217L4.24702 3.69162L4.39777 3.5683L4.21025 3.5689L4.15241 3.36655L4.09458 3.5689L3.90734 3.5683L4.05893 3.69162L4.00026 3.89217ZM5.10887 3.89217L5.26158 3.76735L5.41402 3.89217L5.35591 3.69162L5.50666 3.5683L5.31913 3.5689L5.2613 3.36655L5.20375 3.5689L5.01622 3.5683L5.16782 3.69162L5.10887 3.89217ZM1.31001 4.41779L1.46245 4.29327L1.61489 4.41779L1.55621 4.21844L1.70753 4.09452H1.52L1.46217 3.89217L1.40462 4.09452H1.21709L1.36897 4.21844L1.31001 4.41779ZM2.31924 4.41779L2.47168 4.29327L2.62412 4.41779L2.56516 4.21844L2.71676 4.09452H2.52895L2.4714 3.89217L2.41357 4.09452H2.22604L2.3782 4.21844L2.31924 4.41779ZM3.43262 4.41779L3.5845 4.29327L3.73721 4.41779L3.67714 4.21844L3.82985 4.09452H3.64261L3.5845 3.89217L3.52667 4.09452H3.33914L3.49101 4.21844L3.43262 4.41779ZM4.53617 4.41779L4.68945 4.29327L4.84217 4.41779L4.78322 4.21844L4.93453 4.09452H4.74728L4.68917 3.89217L4.63162 4.09452H4.44409L4.59597 4.21844L4.53617 4.41779ZM5.64506 4.41779L5.79834 4.29327L5.95106 4.41779L5.89182 4.21844L6.04398 4.09452H5.85673L5.79834 3.89217L5.74051 4.09452H5.55298L5.70486 4.21844L5.64506 4.41779ZM6.27221 3.89217L6.42465 3.76735L6.57709 3.89217L6.51813 3.69162L6.67001 3.5683L6.48164 3.5689L6.42437 3.36655L6.36654 3.5689L6.17845 3.5683L6.33117 3.69162L6.27221 3.89217ZM0.772976 4.94371L0.925693 4.82009L1.07813 4.94371L1.0189 4.74286L1.17077 4.61954L0.983243 4.62014L0.925132 4.41779L0.867863 4.62014L0.680054 4.61954L0.831929 4.74286L0.772976 4.94371ZM1.7822 4.94371L1.93464 4.82009L2.08736 4.94371L2.02812 4.74286L2.17972 4.61954L1.99275 4.62014L1.93436 4.41779L1.87681 4.62014L1.68956 4.61954L1.84088 4.74286L1.7822 4.94371ZM2.8953 4.94371L3.04774 4.82009L3.20018 4.94371L3.14122 4.74286L3.29282 4.61954L3.10445 4.62014L3.04746 4.41779L2.98963 4.62014L2.80238 4.61954L2.95425 4.74286L2.8953 4.94371ZM4.00026 4.94371L4.15241 4.82009L4.30513 4.94371L4.24702 4.74286L4.39777 4.61954L4.21025 4.62014L4.15241 4.41779L4.09458 4.62014L3.90734 4.61954L4.05893 4.74286L4.00026 4.94371ZM5.10887 4.94371L5.26158 4.82009L5.41402 4.94371L5.35591 4.74286L5.50666 4.61954L5.31913 4.62014L5.2613 4.41779L5.20375 4.62014L5.01622 4.61954L5.16782 4.74286L5.10887 4.94371ZM1.31001 5.46963L1.46245 5.34451L1.61489 5.46963L1.55621 5.26849L1.70753 5.14636H1.52L1.46217 4.94371L1.40462 5.14636H1.21709L1.36897 5.26849L1.31001 5.46963ZM2.31924 5.46963L2.47168 5.34451L2.62412 5.46963L2.56516 5.26849L2.71676 5.14636H2.52895L2.4714 4.94371L2.41357 5.14636H2.22604L2.3782 5.26849L2.31924 5.46963ZM3.43262 5.46963L3.5845 5.34451L3.73721 5.46963L3.67714 5.26849L3.82985 5.14636H3.64261L3.5845 4.94371L3.52667 5.14636H3.33914L3.49101 5.26849L3.43262 5.46963ZM4.53617 5.46963L4.68945 5.34451L4.84217 5.46963L4.78322 5.26849L4.93453 5.14636H4.74728L4.68917 4.94371L4.63162 5.14636H4.44409L4.59597 5.26849L4.53617 5.46963ZM5.64506 5.46963L5.79834 5.34451L5.95106 5.46963L5.89182 5.26849L6.04398 5.14636H5.85673L5.79834 4.94371L5.74051 5.14636H5.55298L5.70486 5.26849L5.64506 5.46963ZM6.27221 4.94371L6.42465 4.82009L6.57709 4.94371L6.51813 4.74286L6.67001 4.61954L6.48164 4.62014L6.42437 4.41779L6.36654 4.62014L6.17845 4.61954L6.33117 4.74286L6.27221 4.94371Z" fill="white"></path></svg>