<svg _ngcontent-dcs-c65="" xmlns="http://www.w3.org/2000/svg" width="20" height="20" fill="none"><path _ngcontent-dcs-c65="" fill-rule="evenodd" d="M13.375 1h-6.75C3.519 1 1 3.519 1 6.625v6.75C1 16.481 3.519 19 6.625 19h6.75C16.481 19 19 16.481 19 13.375v-6.75C19 3.519 16.481 1 13.375 1zM10 5.235c-2.631 0-4.765 2.133-4.765 4.765S7.369 14.765 10 14.765s4.765-2.133 4.765-4.765S12.631 5.235 10 5.235zm0 7.743c-1.641 0-2.978-1.336-2.978-2.978A2.98 2.98 0 0 1 10 7.022 2.98 2.98 0 0 1 12.978 10c0 1.641-1.336 2.978-2.978 2.978zm5.559-8.009A1.06 1.06 0 0 1 14.5 6.028a1.06 1.06 0 0 1-1.059-1.059A1.06 1.06 0 0 1 14.5 3.91a1.06 1.06 0 0 1 1.059 1.059z" fill="#707e9b"></path></svg>