<svg _ngcontent-dcs-c62="" xmlns="http://www.w3.org/2000/svg" width="20" height="20" fill="none"><path _ngcontent-dcs-c62="" fill-rule="evenodd" d="M2.853 5.719c1.023 0 1.853-.832 1.853-1.86S3.876 2 2.853 2 1 2.832 1 3.859s.83 1.86 1.853 1.86zM1 19h3.706V7.313H1V19zm17.998-6.531c-.002-1.087-.16-2.148-.697-3.116-.459-.828-1.131-1.421-2.026-1.751-.759-.281-1.544-.346-2.342-.242-.82.107-1.539.434-2.115 1.036-.127.132-.241.271-.359.415l-.282.333V7.548H7.353v.029V19h3.824v-6.346c0-.281.011-.569.088-.832.232-.783 1.129-1.439 2.047-1.5.887-.059 1.714.352 2.013 1.189.135.379.171.771.2 1.167V19h1.413 2.056H19v-6.336l-.002-.152h0v-.043z" fill="#707e9b"></path></svg>