<svg _ngcontent-dcs-c64="" xmlns="http://www.w3.org/2000/svg" width="20" height="20" fill="none"><path _ngcontent-dcs-c64="" d="M18.298 4.124C17.649 3.326 16.449 3 14.158 3H5.842c-2.343 0-3.563.347-4.211 1.196C1 5.025 1 6.246 1 7.935v3.22c0 3.273.749 4.935 4.842 4.935h8.316c1.987 0 3.088-.287 3.8-.992.73-.722 1.042-1.902 1.042-3.943v-3.22c0-1.782-.049-3.01-.702-3.812zm-5.742 5.961L8.78 12.152a.56.56 0 0 1-.57-.019c-.174-.11-.28-.308-.28-.52V7.492c0-.212.106-.409.279-.52a.56.56 0 0 1 .569-.02l3.776 2.054c.192.104.313.312.313.539s-.12.435-.312.54z" fill="#707e9b"></path></svg>